<svg width="255" height="54" viewBox="0 0 255 54" fill="none" xmlns="http://www.w3.org/2000/svg">
<path d="M167.21 11.2903H159.322C158.624 9.07007 159.663 5.88733 161.903 4.3749C164.959 2.30739 168.748 2.33795 172.287 6.02992C173.405 4.75507 174.846 3.80511 176.458 3.28004V6.33546H173.784C171.63 6.33546 169.476 6.33546 167.322 6.28963C166.92 6.22523 166.557 6.01268 166.303 5.69382C165.326 4.53276 163.981 4.58878 162.963 5.60725C162.723 5.83938 162.533 6.11793 162.405 6.42589C162.276 6.73384 162.212 7.06473 162.216 7.39835C162.22 7.73197 162.292 8.06131 162.427 8.36625C162.562 8.67119 162.759 8.94532 163.003 9.17192C164.022 10.1395 165.3 9.36543 166.405 8.57611C166.741 8.06687 167.123 8.03122 167.668 8.03632C170.52 8.06178 173.377 8.03632 176.229 8.06178C176.312 8.0744 176.394 8.09662 176.473 8.12798C176.473 8.35204 176.534 8.60157 176.534 8.85619C176.534 11.7996 176.534 14.7481 176.534 17.6915C176.494 18.0711 176.333 18.4279 176.076 18.7099C175.399 19.5247 174.833 20.2733 175.057 21.358C175.122 21.803 175.328 22.2153 175.645 22.5337C175.963 22.8521 176.375 23.0595 176.819 23.125C177.272 23.2735 177.761 23.274 178.214 23.1267C178.667 22.9793 179.061 22.6916 179.34 22.3052C179.513 22.0741 179.768 21.9189 180.053 21.8723C184.168 21.8468 188.278 21.8723 192.515 21.8723C191.452 23.2328 189.922 24.1509 188.222 24.449C187.596 24.6003 186.955 24.6755 186.312 24.6731C182.146 24.6731 177.975 24.6731 173.805 24.6731C173.591 24.6731 173.372 24.6375 173.122 24.6171C173.097 24.3727 173.061 24.1741 173.061 23.9704C173.061 21.0881 173.061 18.2007 173.061 15.3133C173.086 14.9627 173.247 14.6357 173.509 14.4018C173.935 14.087 174.261 13.6552 174.446 13.1589C174.632 12.6626 174.669 12.1231 174.553 11.6061C174.42 11.0889 174.128 10.6268 173.717 10.285C173.307 9.94322 172.799 9.7391 172.267 9.70152C171.762 9.71146 171.274 9.87879 170.869 10.1801C170.465 10.4814 170.165 10.9017 170.011 11.382C169.817 11.8856 169.792 12.4381 169.938 12.9574C170.084 13.4767 170.393 13.935 170.82 14.2643C171.058 14.4227 171.246 14.646 171.36 14.9078C171.475 15.1696 171.512 15.4588 171.467 15.7411C171.467 18.6794 171.467 21.6228 171.467 24.6324H160.544C160.462 23.6801 160.462 22.7227 160.544 21.7705C160.598 21.5389 160.731 21.3335 160.921 21.1899C161.41 20.893 161.782 20.4373 161.976 19.8988C162.17 19.3604 162.173 18.7717 161.985 18.2312C161.861 17.7173 161.564 17.2616 161.144 16.9408C160.724 16.6199 160.206 16.4534 159.678 16.4693C159.185 16.5074 158.716 16.7001 158.338 17.0201C157.96 17.3401 157.693 17.7711 157.575 18.2516C157.392 18.8066 157.405 19.4075 157.613 19.9536C157.821 20.4998 158.21 20.9579 158.716 21.251L158.929 21.3936V24.5814C156.409 25.1823 152.696 23.7768 151.459 21.0626C150.829 19.8835 150.668 18.5101 151.008 17.2173C151.348 15.9246 152.164 14.808 153.292 14.0911C154.548 13.2812 156.02 12.8726 157.514 12.9199C159.892 12.9505 162.27 12.9199 164.643 12.9199H165.555C165.555 14.305 165.585 15.6036 165.524 16.9021C165.524 17.172 165.137 17.4114 164.949 17.6711C164.368 18.4808 163.772 19.5655 164.124 20.5381C164.294 21.0264 164.619 21.4457 165.049 21.732C165.48 22.0183 165.992 22.1557 166.508 22.1234C167.024 22.0911 167.516 21.8907 167.907 21.553C168.299 21.2152 168.569 20.7586 168.677 20.2529C168.801 19.7947 168.784 19.3095 168.629 18.8608C168.474 18.4121 168.187 18.0205 167.806 17.7373C167.575 17.5797 167.39 17.3637 167.271 17.1114C167.151 16.8592 167.1 16.5796 167.123 16.3012C166.797 14.6564 167.21 13.0218 167.21 11.2903Z" fill="#FDC633"/>
<path d="M178.211 15.3444C179.107 15.2069 179.296 14.993 180.324 16.0522C181.205 16.9638 182.407 16.9791 183.431 15.9962C183.647 15.8125 183.823 15.5855 183.947 15.3298C184.071 15.0741 184.14 14.7953 184.149 14.5114C184.159 14.2275 184.109 13.9448 184.003 13.6813C183.897 13.4178 183.736 13.1795 183.533 12.9815C182.596 11.9071 181.272 11.7288 180.421 12.8542C179.805 13.6639 179.138 13.7047 178.242 13.5672V3.0616C180.64 2.86299 182.621 4.01896 184.083 6.01517C185.544 8.01138 186.008 10.471 184.979 12.5232C186.426 12.7053 187.861 12.9705 189.277 13.3176C191.019 13.8269 192.75 14.8199 193.275 16.7652C193.572 17.6637 193.657 18.6188 193.524 19.5558C193.469 19.6899 193.384 19.8096 193.275 19.9058C193.167 20.002 193.038 20.0722 192.898 20.1109C188.625 20.1109 184.347 20.1109 180.07 20.1109C179.861 20.1109 179.637 19.8715 179.443 19.7086C179.327 19.6157 179.204 19.5307 179.077 19.454C177.717 18.6544 178.191 17.1777 178.18 15.93C178.175 15.7263 178.196 15.5532 178.211 15.3444Z" fill="#FDC633"/>
<path d="M196.131 17.5586C196.569 23.1144 191.65 27.5499 186.634 27.336C177.014 27.4226 167.389 27.3971 157.764 27.336C151.704 27.555 145.736 20.4969 149.616 14.5592C151.826 10.3733 156.771 11.127 156.685 9.10528C157.199 1.62967 166.131 -1.9299 171.774 2.04216C171.915 2.12188 172.073 2.16671 172.235 2.17291C172.397 2.17911 172.559 2.1465 172.706 2.0778C178.628 -2.24053 188.049 2.16437 187.953 10.1187C191.991 11.0608 195.046 13.0926 196.131 17.5586ZM167.211 11.2899C167.501 13.1843 166.518 16.4994 167.832 17.747C168.213 18.0303 168.5 18.4218 168.655 18.8706C168.811 19.3193 168.827 19.8044 168.703 20.2627C168.61 20.7804 168.347 21.252 167.954 21.6021C167.562 21.9522 167.063 22.1603 166.538 22.1932C166.014 22.2261 165.493 22.0818 165.06 21.7834C164.627 21.4851 164.306 21.05 164.15 20.5478C163.519 18.959 164.848 18.0424 165.551 16.9119C165.612 15.6133 165.581 14.3148 165.581 12.9297C162.872 12.9297 160.234 12.9551 157.535 12.9297C147.493 13.6222 149.794 25.6199 158.951 24.5912V21.3932C156.583 20.3085 157.133 16.586 159.699 16.4689C162.108 16.3415 163.157 19.8757 160.942 21.1895C160.132 22.0297 160.702 23.5065 160.545 24.6319H171.463C171.463 21.6223 171.463 18.6789 171.463 15.7406C171.508 15.4584 171.471 15.1692 171.356 14.9074C171.242 14.6456 171.054 14.4222 170.816 14.2639C168.922 12.9755 170.144 9.58396 172.278 9.72655C174.569 9.79784 175.522 13.0213 173.52 14.4268C173.258 14.6607 173.097 14.9877 173.072 15.3383C173.072 18.4447 172.96 21.5409 173.118 24.6421C177.513 24.8 181.913 24.6421 186.308 24.6879C187.481 24.7098 188.645 24.4661 189.711 23.9749C190.777 23.4837 191.718 22.7578 192.464 21.8515C188.228 21.8515 184.118 21.8515 180.003 21.8515C179.718 21.8981 179.463 22.0533 179.29 22.2843C179.026 22.6765 178.649 22.9799 178.21 23.1553C177.77 23.3306 177.288 23.3698 176.827 23.2676C176.365 23.1655 175.944 22.9267 175.62 22.5825C175.295 22.2382 175.082 21.8043 175.007 21.3372C174.498 19.6974 176.224 19.066 176.494 17.6961C176.494 14.5185 176.606 11.3052 176.449 8.13264C173.536 7.93403 170.577 8.13264 167.644 8.04097C165.948 8.04097 165.663 11.1779 162.979 9.17657C160.433 6.8239 164.114 2.93332 166.32 5.64246C166.573 5.96132 166.936 6.17387 167.338 6.23827C170.394 6.31466 173.418 6.27392 176.474 6.2841V3.22868C174.862 3.75375 173.421 4.70371 172.303 5.97856C166.773 0.193623 158.085 3.95689 159.322 11.2899H167.211ZM178.211 15.3638C178.068 17.6707 177.915 18.7757 180.069 20.0997C184.347 20.1303 188.625 20.1455 192.897 20.0997C194.064 19.8196 193.371 17.6045 193.188 16.7795C191.833 13.2454 188.095 12.9806 184.979 12.5121C186.817 7.87292 182.824 2.88749 178.241 3.06063V13.5662C179.137 13.7037 179.769 13.5968 180.4 12.7871C182.437 10.2409 186.002 14.218 183.675 16.3925C180.711 18.7706 180.614 14.7731 178.211 15.3434V15.3638Z" fill="#272E64"/>
<path d="M233.239 11.5454V15.935C233.268 17.5928 233.042 19.2452 232.567 20.8339C232.182 22.1213 231.533 23.3145 230.662 24.3374C229.854 25.2621 228.838 25.9828 227.698 26.4406C225.229 27.3844 222.498 27.3844 220.029 26.4406C218.886 25.9805 217.866 25.2604 217.05 24.3374C216.167 23.3187 215.509 22.1248 215.12 20.8339C214.636 19.2469 214.406 17.5937 214.437 15.935V11.5454C214.406 9.843 214.63 8.14555 215.099 6.509C215.485 5.20053 216.139 3.98661 217.019 2.94434C217.83 1.99025 218.849 1.23573 219.998 0.739341C222.451 -0.235868 225.184 -0.235868 227.637 0.739341C228.786 1.22772 229.807 1.97341 230.621 2.91888C231.506 3.96926 232.163 5.19171 232.551 6.509C233.033 8.14366 233.264 9.84155 233.239 11.5454ZM228.014 15.935V11.5097C228.03 10.4239 227.939 9.33921 227.744 8.27096C227.611 7.49911 227.337 6.75848 226.934 6.08633C226.621 5.55717 226.168 5.12395 225.626 4.83361C225.063 4.56854 224.448 4.4311 223.825 4.4311C223.203 4.4311 222.588 4.56854 222.025 4.83361C221.478 5.11947 221.023 5.55363 220.711 6.08633C220.319 6.76099 220.051 7.50111 219.922 8.27096C219.733 9.33994 219.647 10.4244 219.662 11.5097V15.935C219.648 16.9785 219.738 18.0209 219.932 19.0464C220.065 19.7936 220.338 20.5089 220.737 21.1547C221.066 21.6629 221.522 22.0756 222.061 22.3514C222.625 22.6066 223.237 22.7386 223.856 22.7386C224.475 22.7386 225.087 22.6066 225.651 22.3514C226.186 22.0775 226.636 21.664 226.955 21.1547C227.344 20.5057 227.611 19.7913 227.744 19.0464C227.938 18.0209 228.028 16.9785 228.014 15.935Z" fill="#272E64"/>
<path d="M179.483 17.1827H184.123C184.278 17.1827 184.427 17.2444 184.537 17.3543C184.646 17.4641 184.708 17.613 184.708 17.7684V17.9822C184.708 18.1376 184.646 18.2865 184.537 18.3963C184.427 18.5062 184.278 18.5679 184.123 18.5679H179.483C179.391 18.5679 179.303 18.5314 179.238 18.4664C179.173 18.4015 179.137 18.3134 179.137 18.2216V17.529C179.137 17.4372 179.173 17.3491 179.238 17.2842C179.303 17.2192 179.391 17.1827 179.483 17.1827Z" fill="#FDC633"/>
<path d="M204.784 0.00793457V27.1503H199.523V0.00793457H204.784ZM214.032 22.6232V27.1503H203.195V22.6232H214.032Z" fill="#272E64"/>
<path d="M254.225 12.9164V23.7937C253.724 24.3063 253.177 24.7717 252.591 25.1839C251.736 25.7796 250.797 26.2431 249.805 26.5588C248.455 26.9826 247.044 27.1821 245.629 27.1495C244.289 27.1744 242.956 26.9499 241.698 26.4875C240.528 26.0421 239.48 25.3247 238.642 24.3946C237.752 23.3746 237.094 22.1742 236.712 20.8757C236.238 19.247 236.013 17.5558 236.045 15.8597V11.3581C236.015 9.66382 236.231 7.97413 236.687 6.3421C237.045 5.03491 237.679 3.81949 238.545 2.77743C239.337 1.85411 240.337 1.13307 241.463 0.674282C242.693 0.203509 244.002 -0.0230841 245.318 0.00718102C246.987 -0.0546981 248.646 0.284065 250.156 0.995102C251.408 1.64264 252.416 2.67911 253.029 3.94868C253.734 5.46148 254.136 7.09834 254.21 8.76607H249.117C249.073 7.87121 248.886 6.98924 248.562 6.15368C248.339 5.58384 247.928 5.1076 247.396 4.8042C246.803 4.54076 246.162 4.40211 245.513 4.39686C244.863 4.3916 244.22 4.51985 243.623 4.77364C243.087 5.04699 242.639 5.46514 242.329 5.98054C241.944 6.63861 241.684 7.36188 241.56 8.11424C241.375 9.17335 241.29 10.2474 241.306 11.3224V15.8343C241.288 16.9054 241.382 17.9754 241.586 19.0272C241.724 19.7959 242.013 20.5297 242.436 21.1864C242.792 21.7167 243.295 22.1323 243.882 22.3831C244.532 22.6342 245.223 22.757 245.919 22.7446C246.435 22.7589 246.95 22.6954 247.447 22.5562C247.771 22.454 248.083 22.3138 248.374 22.1386C248.603 21.9859 248.802 21.8687 248.955 21.7822V16.9241H245.201V12.9164H254.225Z" fill="#272E64"/>
<path d="M11.9499 19.8663C11.9548 19.4335 11.9121 19.0014 11.8226 18.5779C11.7368 18.1823 11.5529 17.8145 11.2878 17.5085C10.9484 17.124 10.5516 16.7942 10.1115 16.5308C9.47184 16.1398 8.80269 15.7993 8.11011 15.5123C7.13744 15.1049 6.18514 14.667 5.26849 14.2036C4.38384 13.7582 3.55195 13.215 2.78844 12.5842C2.05649 11.9822 1.45517 11.2371 1.02134 10.3945C0.581538 9.47181 0.36853 8.45744 0.400051 7.43581C0.391479 6.39498 0.603211 5.36412 1.02134 4.41094C1.4126 3.52103 1.99506 2.72821 2.72733 2.08881C3.50029 1.42481 4.39429 0.916435 5.36016 0.591655C6.44651 0.237694 7.58387 0.0656311 8.72631 0.0824175C10.256 0.0435898 11.7692 0.405216 13.1161 1.13145C14.3268 1.80472 15.3251 2.80305 15.9984 4.01373C16.6939 5.30127 17.0448 6.74674 17.0169 8.20985H11.7513C11.7633 7.53943 11.6564 6.87219 11.4355 6.2391C11.2419 5.69852 10.8862 5.23082 10.417 4.8998C9.89255 4.54812 9.27088 4.36999 8.63974 4.39057C8.05406 4.3661 7.47335 4.5073 6.9643 4.79796C6.53658 5.05735 6.1961 5.43861 5.98654 5.89282C5.77014 6.38339 5.66243 6.91497 5.6708 7.45108C5.66431 7.85855 5.77381 8.25946 5.98654 8.60705C6.21968 8.96692 6.51856 9.27962 6.86754 9.52877C7.28501 9.83566 7.72995 10.1033 8.19669 10.3283C8.70594 10.5829 9.2763 10.8375 9.8874 11.0718C10.9869 11.4889 12.0483 12 13.06 12.5995C13.9133 13.1123 14.687 13.7471 15.3568 14.4837C15.9666 15.1686 16.4402 15.9637 16.7521 16.8261C17.0775 17.7815 17.236 18.7858 17.2206 19.795C17.2351 20.8231 17.0411 21.8434 16.6503 22.7944C16.2774 23.68 15.712 24.4715 14.9952 25.1114C14.2313 25.7789 13.3412 26.2862 12.3776 26.6035C11.2766 26.9618 10.1234 27.134 8.96566 27.1127C7.79381 27.1206 6.62768 26.9488 5.50784 26.6035C4.46431 26.2834 3.4949 25.7589 2.65603 25.0605C1.80676 24.3242 1.14072 23.4001 0.710694 22.3616C0.211639 21.1284 -0.0292748 19.806 0.00283537 18.4761H5.30923C5.29486 19.1625 5.37366 19.8478 5.54349 20.513C5.66515 21.0143 5.91424 21.4756 6.26662 21.8523C6.60019 22.1927 7.01321 22.4447 7.46846 22.5856C7.99882 22.7522 8.55239 22.833 9.10825 22.825C9.69425 22.8462 10.2745 22.7034 10.7837 22.4125C11.1908 22.163 11.5055 21.7875 11.68 21.3431C11.8606 20.8718 11.9522 20.371 11.9499 19.8663Z" fill="#272E64"/>
<path d="M26.3716 0.00793457V27.1503H21.0703V0.00793457H26.3716ZM35.6807 10.9871V15.5193H24.8693V10.9871H35.6807ZM39.5154 0.00793457V27.1503H34.265V0.00793457H39.5154Z" fill="#272E64"/>
<path d="M48.6158 0.00793457V27.1503H43.3501V0.00793457H48.6158Z" fill="#272E64"/>
<path d="M61.4482 17.5858H56.0196V13.0587H61.4329C62.0813 13.0902 62.7225 12.9116 63.2611 12.5495C63.7388 12.1812 64.0938 11.677 64.2796 11.1033C64.5046 10.434 64.6148 9.73155 64.6056 9.02557C64.6096 8.27994 64.4997 7.53808 64.2796 6.82566C64.0974 6.19581 63.745 5.62843 63.2611 5.18592C62.7485 4.7623 62.0974 4.54288 61.4329 4.56974H57.7409V27.1493H52.4548V0.00697032H61.4533C63.0484 -0.0346191 64.624 0.36543 66.006 1.16294C67.2683 1.92201 68.2891 3.02398 68.9495 4.34058C69.6535 5.782 70.0027 7.37086 69.968 8.97464C70.0154 10.5633 69.6654 12.1387 68.9495 13.5578C68.2785 14.8156 67.2557 15.8508 66.006 16.5368C64.603 17.2747 63.0326 17.6361 61.4482 17.5858Z" fill="#272E64"/>
<path d="M82.9235 17.5858H77.5102V13.0587H82.9235C83.5529 13.1013 84.1783 12.9298 84.6979 12.572C85.2175 12.2142 85.6008 11.6912 85.7855 11.088C86.0105 10.4187 86.1207 9.71627 86.1114 9.01029C86.1155 8.26467 86.0056 7.5228 85.7855 6.81038C85.6033 6.18053 85.2509 5.61315 84.767 5.17064C84.2546 4.7466 83.6034 4.52712 82.9388 4.55446H79.2467V27.1493H73.925V0.00697032H82.9235C84.5186 -0.0346191 86.0942 0.36543 87.4762 1.16294C88.7398 1.92047 89.7609 3.02285 90.4197 4.34058C91.1237 5.782 91.4729 7.37086 91.4382 8.97464C91.4857 10.5633 91.1356 12.1387 90.4197 13.5578C89.7504 14.8169 88.7272 15.8525 87.4762 16.5368C86.0747 17.2738 84.5062 17.6353 82.9235 17.5858Z" fill="#272E64"/>
<path d="M100.565 0.00793457V27.1503H95.2996V0.00793457H100.565Z" fill="#272E64"/>
<path d="M122.916 0.00793457V27.1503H117.793L109.517 10.1927V27.1503H104.486V0.00793457H109.538L117.879 17.1794V0.00793457H122.916Z" fill="#272E64"/>
<path d="M145.089 12.9411V23.798C144.588 24.3093 144.041 24.773 143.454 25.1831C142.593 25.7805 141.647 26.2456 140.648 26.5632C139.285 26.9849 137.863 27.1826 136.437 27.1488C135.081 27.1676 133.734 26.9345 132.464 26.4613C131.295 26.0153 130.247 25.298 129.409 24.3684C128.515 23.3618 127.849 22.1735 127.458 20.8852C126.984 19.2515 126.764 17.5545 126.807 15.8539V11.3828C126.776 9.6919 126.993 8.00562 127.448 6.37699C127.812 5.07665 128.451 3.86968 129.322 2.83779C130.119 1.91251 131.127 1.19284 132.261 0.739734C133.488 0.266627 134.795 0.0332572 136.111 0.0522637C137.791 -0.0148031 139.463 0.318578 140.989 1.02491C142.249 1.67103 143.265 2.70712 143.887 3.97848C144.595 5.48707 144.998 7.12077 145.073 8.78569H139.95C139.902 7.89257 139.713 7.0127 139.39 6.17839C139.161 5.60726 138.745 5.13123 138.209 4.82891C137.595 4.53409 136.918 4.39421 136.238 4.42152C135.607 4.40702 134.982 4.53769 134.41 4.80345C133.87 5.07271 133.418 5.48943 133.106 6.00525C132.713 6.66588 132.448 7.39509 132.327 8.15423C132.142 9.21162 132.057 10.284 132.072 11.3573V15.8641C132.057 16.9337 132.152 18.002 132.357 19.0519C132.497 19.8195 132.788 20.5516 133.213 21.206C133.57 21.7438 134.079 22.1637 134.675 22.4129C135.335 22.6699 136.039 22.7928 136.747 22.7744C137.263 22.7894 137.778 22.7259 138.275 22.586C138.602 22.4858 138.915 22.3456 139.207 22.1684C139.441 22.0208 139.635 21.9036 139.793 21.8171V16.9386H136.009V12.9411H145.089Z" fill="#272E64"/>
<path d="M189.617 18.792C189.617 18.792 189.688 17.0708 187.727 14.8912H185.96L188.298 18.848L189.617 18.792Z" fill="#FDC633"/>
<path d="M6.49498 36.7963L2.93022 49.5578H0.338135L5.03343 34.79H6.64776L6.49498 36.7963ZM9.41299 44.0632V46.1358H2.54829V44.0632H9.41299ZM9.35188 49.5578L5.78712 36.7963L5.62416 34.7594H7.24867L11.944 49.5578H9.35188Z" fill="#272E64"/>
<path d="M16.4054 34.7634V49.5568H13.9407V34.7889L16.4054 34.7634Z" fill="#272E64"/>
<path d="M23.5767 42.2389V44.23H18.9934V42.2389H23.5767Z" fill="#272E64"/>
<path d="M31.0062 44.0712H27.8743V41.9986H31.0062C31.44 42.0186 31.8696 41.9068 32.2386 41.6778C32.5556 41.4613 32.7976 41.1516 32.9311 40.7917C33.0823 40.3775 33.1565 39.9391 33.1501 39.4982C33.1511 39.0561 33.077 38.617 32.9311 38.1997C32.7969 37.8151 32.5568 37.4762 32.2386 37.2219C31.8828 36.9599 31.4475 36.8286 31.0062 36.8502H28.577V49.5811H26.1072V34.8132H31.0062C31.8779 34.7876 32.7403 34.9988 33.5015 35.4243C34.1771 35.8181 34.7252 36.3979 35.0802 37.0946C35.4571 37.8324 35.6526 38.6494 35.6505 39.4779C35.6734 40.3306 35.4844 41.1757 35.1006 41.9375C34.7441 42.6097 34.1942 43.1596 33.5219 43.5161C32.7424 43.9072 31.8778 44.0979 31.0062 44.0712Z" fill="#272E64"/>
<path d="M37.4728 44.5042V43.6232C37.4596 42.8564 37.5643 42.0921 37.7834 41.3571C37.9774 40.7572 38.291 40.2029 38.7052 39.7275C39.0814 39.2872 39.5535 38.9388 40.0853 38.7091C41.2159 38.2542 42.4786 38.2542 43.6093 38.7091C44.1394 38.9415 44.6109 39.2895 44.9893 39.7275C45.3988 40.2098 45.7039 40.7715 45.8856 41.3775C46.109 42.1116 46.2156 42.8763 46.2014 43.6436V44.5246C46.216 45.2902 46.1094 46.0533 45.8856 46.7856C45.7033 47.3897 45.3982 47.9497 44.9893 48.4304C44.6124 48.87 44.1405 49.2183 43.6093 49.4489C42.4839 49.9039 41.2259 49.9039 40.1005 49.4489C39.5678 49.2185 39.0942 48.8702 38.7154 48.4304C38.3029 47.9506 37.9943 47.3905 37.8089 46.7856C37.5786 46.0473 37.4652 45.2775 37.4728 44.5042ZM39.8459 43.6232V44.5042C39.8397 44.9898 39.8858 45.4747 39.9834 45.9504C40.0556 46.3112 40.1919 46.6562 40.3857 46.9689C40.5427 47.2188 40.7598 47.4254 41.0172 47.5698C41.2694 47.704 41.5514 47.7723 41.8371 47.7684C42.1343 47.774 42.4282 47.7057 42.6926 47.5698C42.9516 47.4294 43.168 47.2218 43.319 46.9689C43.502 46.654 43.6279 46.3092 43.6908 45.9504C43.7697 45.4725 43.8055 44.9885 43.7977 44.5042V43.6232C43.8047 43.1426 43.7586 42.6627 43.6602 42.1923C43.5807 41.8329 43.4431 41.4888 43.2528 41.1738C43.0957 40.9182 42.8768 40.7063 42.6162 40.5576C42.3676 40.4231 42.0892 40.353 41.8065 40.3539C41.5253 40.3517 41.2482 40.4218 41.0019 40.5576C40.7466 40.7097 40.5318 40.921 40.3755 41.1738C40.1848 41.4881 40.0488 41.8325 39.9732 42.1923C39.8782 42.6631 39.8355 43.143 39.8459 43.6232Z" fill="#272E64"/>
<path d="M49.9597 38.5604L51.5944 47.1257V49.5548H50.1329L47.6528 38.5604H49.9597ZM50.856 47.085L53.0203 38.5604H54.4921L54.2069 41.1728L52.0833 49.5548H50.744L50.856 47.085ZM54.7671 38.5604L56.9008 46.9832L57.0434 49.5293H55.7194L53.5398 41.1371L53.2546 38.5349L54.7671 38.5604ZM56.249 47.0239L57.8328 38.5604H60.1295L57.6596 49.5548H56.1675L56.249 47.0239Z" fill="#272E64"/>
<path d="M66.2061 49.7578C65.5585 49.7689 64.9145 49.6601 64.3066 49.437C63.7682 49.2346 63.285 48.9083 62.8959 48.4847C62.4898 48.0346 62.1873 47.501 62.0099 46.9213C61.7947 46.2205 61.6916 45.4901 61.7043 44.7571V43.7029C61.689 42.8918 61.7972 42.083 62.0251 41.3044C62.2024 40.6931 62.506 40.1258 62.9163 39.6392C63.2805 39.2137 63.7416 38.8819 64.2607 38.6717C65.3823 38.2493 66.6212 38.2621 67.7338 38.7073C68.2344 38.932 68.6678 39.2829 68.9917 39.7258C69.3407 40.2206 69.5882 40.7796 69.7199 41.3706C69.8912 42.1152 69.9716 42.8779 69.9593 43.6418V44.8182H62.8297V43.0206H67.6218V42.7812C67.6207 42.3437 67.559 41.9084 67.4385 41.4878C67.3562 41.1647 67.1787 40.8737 66.9292 40.6526C66.6352 40.4375 66.274 40.3346 65.9107 40.3623C65.6312 40.3584 65.3545 40.4176 65.101 40.5355C64.855 40.6607 64.6513 40.8555 64.5154 41.0956C64.3418 41.413 64.223 41.7573 64.164 42.1141C64.0745 42.6388 64.0336 43.1707 64.0418 43.7029V44.7571C64.0334 45.2248 64.083 45.6917 64.1894 46.1473C64.2659 46.487 64.4172 46.8054 64.6325 47.0792C64.8237 47.3083 65.0711 47.4838 65.3505 47.5884C65.6628 47.7061 65.9947 47.7632 66.3283 47.7565C66.8132 47.7727 67.295 47.6732 67.7338 47.4662C68.1206 47.2618 68.466 46.9872 68.7523 46.6565L69.8065 48.1129C69.5836 48.4019 69.3272 48.6635 69.0426 48.8921C68.6788 49.1649 68.2728 49.3765 67.8408 49.5184C67.3125 49.6867 66.7604 49.7675 66.2061 49.7578Z" fill="#272E64"/>
<path d="M74.4151 40.6846V49.5555H72.0471V38.5611H74.3031L74.4151 40.6846ZM77.0683 38.4796V40.8272C76.926 40.794 76.7812 40.7719 76.6355 40.761H76.1822C75.8896 40.7569 75.5995 40.816 75.3318 40.9341C75.0933 41.0507 74.8883 41.2259 74.736 41.4433C74.5654 41.6788 74.4378 41.9426 74.3591 42.2225C74.2636 42.5543 74.2072 42.8961 74.1911 43.2409H73.6818C73.6793 42.5943 73.7322 41.9486 73.8397 41.3109C73.9355 40.78 74.107 40.2655 74.3489 39.7832C74.5453 39.384 74.8311 39.0355 75.1841 38.7647C75.5169 38.5142 75.9236 38.3816 76.3401 38.3879C76.4802 38.3905 76.6198 38.4042 76.7577 38.4286C76.8621 38.4396 76.9659 38.4566 77.0683 38.4796Z" fill="#272E64"/>
<path d="M83.0966 49.7584C82.4474 49.7691 81.8018 49.6604 81.192 49.4376C80.6536 49.2352 80.1704 48.909 79.7814 48.4853C79.3768 48.035 79.076 47.5013 78.9003 46.9219C78.6852 46.2211 78.5821 45.4907 78.5948 44.7577V43.7036C78.5861 42.8914 78.7012 42.0826 78.936 41.3051C79.1137 40.6949 79.4153 40.1281 79.8221 39.6399C80.1895 39.2156 80.6519 38.8841 81.1716 38.6723C82.2932 38.2346 83.5384 38.2346 84.66 38.6723C85.1598 38.8959 85.5919 39.2471 85.9127 39.6908C86.266 40.1838 86.5154 40.7434 86.6461 41.3356C86.8149 42.0806 86.8952 42.843 86.8854 43.6068V44.8188H79.7559V43.0212H84.5378V42.7818C84.5317 42.3447 84.4701 41.91 84.3544 41.4884C84.2739 41.1646 84.0962 40.8731 83.8452 40.6532C83.558 40.4439 83.2068 40.3413 82.8521 40.363C82.5711 40.3595 82.2927 40.4187 82.0373 40.5361C81.7924 40.6627 81.5891 40.8572 81.4517 41.0963C81.28 41.414 81.163 41.7583 81.1054 42.1147C81.0159 42.6395 80.975 43.1713 80.9832 43.7036V44.7577C80.9723 45.2255 81.0219 45.6928 81.1309 46.1479C81.2078 46.4865 81.3572 46.8045 81.5688 47.0798C81.762 47.3068 82.0088 47.4818 82.2869 47.5891C82.5991 47.7068 82.931 47.7638 83.2646 47.7571C83.7545 47.7674 84.2398 47.6609 84.6804 47.4465C85.0667 47.2413 85.4119 46.9669 85.6989 46.6368L86.7581 48.0932C86.5249 48.3927 86.2545 48.6614 85.9535 48.8927C85.5915 49.1655 85.1872 49.3771 84.7567 49.5191C84.2204 49.6901 83.6594 49.7709 83.0966 49.7584Z" fill="#272E64"/>
<path d="M88.613 44.5032V43.6426C88.6008 42.8548 88.6828 42.0684 88.8574 41.3001C88.9879 40.7106 89.228 40.1509 89.5653 39.6501C89.8523 39.2271 90.2482 38.8893 90.7111 38.6724C91.1908 38.4557 91.7126 38.3478 92.2389 38.3567C92.7357 38.3452 93.2258 38.4722 93.6546 38.7233C94.0724 38.9875 94.4214 39.347 94.6731 39.7724C94.9741 40.2775 95.1973 40.8252 95.3351 41.3968C95.5078 42.0868 95.6203 42.7905 95.6712 43.5V44.6967C95.6095 45.3841 95.492 46.0653 95.3198 46.7336C95.1854 47.2992 94.9638 47.8404 94.6629 48.3377C94.4079 48.7523 94.059 49.1012 93.6444 49.3562C93.2156 49.6074 92.7255 49.7343 92.2287 49.7229C91.6999 49.7349 91.1759 49.6196 90.7009 49.3868C90.2423 49.1469 89.8503 48.797 89.5602 48.3683C89.22 47.8722 88.978 47.3156 88.8473 46.7285C88.6814 45.9986 88.6028 45.2516 88.613 44.5032ZM90.981 43.6426V44.5032C90.9737 44.9907 91.0078 45.4779 91.0829 45.9596C91.1286 46.3154 91.2372 46.6603 91.4037 46.9781C91.541 47.2241 91.746 47.4256 91.9944 47.5586C92.271 47.6897 92.5745 47.7542 92.8805 47.747C93.2604 47.7617 93.6339 47.6468 93.9398 47.4211C94.2265 47.1881 94.4476 46.8845 94.5814 46.5401C94.7421 46.1417 94.8499 45.724 94.9023 45.2976V42.9195C94.8729 42.5734 94.8045 42.2317 94.6986 41.901C94.6062 41.6125 94.4742 41.3383 94.3064 41.0862C94.15 40.8667 93.9441 40.6871 93.7055 40.5617C93.4547 40.4292 93.1743 40.3627 92.8907 40.3682C92.5816 40.3575 92.2749 40.4258 91.9995 40.5668C91.7527 40.7071 91.5499 40.9134 91.4139 41.1626C91.2469 41.481 91.135 41.8253 91.0829 42.1811C90.9966 42.6634 90.954 43.1526 90.9556 43.6426H90.981ZM94.5152 47.2582V33.9518H96.8832V49.5548H94.7291L94.5152 47.2582Z" fill="#272E64"/>
<path d="M107.154 34.7634V49.5568H104.689V34.7889L107.154 34.7634ZM112.654 47.4944V49.5568H106.507V47.4842L112.654 47.4944Z" fill="#272E64"/>
<path d="M120.054 42.8599V44.3876H118.914C118.603 44.3835 118.294 44.4282 117.997 44.52C117.747 44.602 117.515 44.7317 117.315 44.9019C117.13 45.0704 116.984 45.2772 116.887 45.5079C116.789 45.7558 116.74 46.0205 116.744 46.287C116.734 46.5739 116.782 46.86 116.887 47.1273C116.971 47.3417 117.125 47.5212 117.325 47.6365C117.548 47.7468 117.794 47.801 118.043 47.7944C118.385 47.8004 118.723 47.7142 119.021 47.5449C119.287 47.3992 119.513 47.1892 119.678 46.9338C119.811 46.7438 119.876 46.5138 119.861 46.282L120.401 47.2699C120.337 47.5528 120.238 47.8266 120.105 48.0847C119.955 48.379 119.764 48.6514 119.54 48.8943C119.304 49.1545 119.021 49.3672 118.705 49.5207C118.351 49.6861 117.965 49.768 117.574 49.76C117.004 49.7688 116.44 49.634 115.935 49.3679C115.458 49.1149 115.066 48.7293 114.804 48.2578C114.516 47.7237 114.375 47.1226 114.397 46.5162C114.389 46.0077 114.481 45.5027 114.667 45.0292C114.841 44.5865 115.117 44.1907 115.471 43.8733C115.867 43.5317 116.33 43.2767 116.831 43.1247C117.451 42.9363 118.097 42.847 118.746 42.8599H120.054ZM119.739 47.3208V41.8465C119.753 41.5315 119.699 41.2172 119.581 40.9248C119.491 40.7072 119.329 40.5273 119.122 40.4155C118.89 40.3066 118.635 40.2543 118.379 40.2628C118.104 40.2555 117.832 40.3204 117.59 40.4512C117.374 40.5674 117.197 40.7445 117.08 40.9604C116.969 41.1976 116.913 41.4571 116.917 41.7192H114.585C114.584 41.2822 114.676 40.85 114.855 40.4512C115.036 40.0378 115.302 39.6667 115.634 39.3614C115.989 39.0332 116.404 38.7772 116.856 38.6077C117.371 38.4179 117.917 38.3247 118.466 38.3328C119.109 38.3215 119.749 38.441 120.345 38.6841C120.887 38.9135 121.341 39.3094 121.643 39.8146C121.989 40.4358 122.155 41.1413 122.122 41.8516V47.0051C122.121 47.467 122.155 47.9284 122.224 48.3851C122.273 48.7347 122.365 49.0769 122.499 49.4036V49.5665H120.08C119.963 49.2368 119.883 48.8952 119.841 48.5481C119.779 48.1418 119.744 47.7317 119.739 47.3208Z" fill="#272E64"/>
<path d="M129.811 46.658C129.812 46.4383 129.743 46.2239 129.612 46.047C129.437 45.8361 129.22 45.6628 128.976 45.5377C128.606 45.3144 128.221 45.1153 127.825 44.9419C127.361 44.7558 126.907 44.545 126.465 44.3105C126.096 44.1272 125.753 43.8942 125.447 43.6179C125.183 43.3698 124.973 43.0699 124.831 42.7369C124.688 42.3722 124.618 41.9828 124.627 41.5911C124.622 41.1558 124.707 40.7243 124.876 40.3231C125.046 39.937 125.294 39.5902 125.605 39.3046C125.939 39.0035 126.328 38.7685 126.75 38.6121C127.24 38.4359 127.758 38.3497 128.278 38.3575C128.982 38.3391 129.681 38.4892 130.315 38.7954C130.855 39.0626 131.306 39.4799 131.614 39.9972C131.923 40.5303 132.08 41.138 132.067 41.7541H129.699C129.701 41.4949 129.649 41.2381 129.546 41.0004C129.447 40.7737 129.285 40.5807 129.078 40.4453C128.838 40.2981 128.559 40.2254 128.278 40.2366C128.018 40.228 127.761 40.2858 127.53 40.4046C127.341 40.5071 127.186 40.6606 127.081 40.8476C126.981 41.0427 126.93 41.2596 126.934 41.4791C126.928 41.6326 126.959 41.7853 127.026 41.9237C127.093 42.0622 127.192 42.1823 127.316 42.2735C127.494 42.4138 127.687 42.535 127.891 42.6351C128.13 42.7624 128.436 42.8999 128.808 43.0577C129.451 43.2904 130.07 43.5855 130.656 43.9387C131.102 44.2013 131.478 44.5683 131.751 45.0081C132.008 45.4752 132.133 46.0032 132.113 46.5358C132.118 46.9908 132.028 47.4419 131.848 47.8598C131.671 48.254 131.406 48.6024 131.074 48.8783C130.716 49.1722 130.304 49.3936 129.862 49.5301C129.354 49.6879 128.825 49.7652 128.293 49.7593C127.535 49.785 126.783 49.6093 126.114 49.2501C125.565 48.9511 125.108 48.5091 124.791 47.9712C124.473 47.4332 124.308 46.8193 124.311 46.1946H126.598C126.598 46.5531 126.694 46.905 126.878 47.2131C127.032 47.4429 127.252 47.6205 127.509 47.7223C127.772 47.8239 128.052 47.8757 128.334 47.8751C128.614 47.8828 128.893 47.8343 129.154 47.7325C129.366 47.6523 129.545 47.5035 129.663 47.3099C129.771 47.1102 129.822 46.8847 129.811 46.658Z" fill="#272E64"/>
<path d="M138.834 38.5622V40.3904H133.426V38.5622H138.834ZM134.913 35.8734H137.281V46.4859C137.268 46.7471 137.307 47.0081 137.393 47.2549C137.447 47.41 137.558 47.5391 137.703 47.6164C137.853 47.681 138.014 47.7123 138.177 47.7081C138.31 47.7083 138.443 47.6981 138.574 47.6775C138.672 47.6646 138.77 47.6442 138.865 47.6164V49.5159C138.67 49.5874 138.471 49.6453 138.269 49.689C137.993 49.7402 137.714 49.7641 137.434 49.7603C136.986 49.769 136.543 49.6658 136.145 49.4599C135.749 49.2357 135.436 48.889 135.254 48.4719C135.011 47.8961 134.898 47.2735 134.923 46.6489L134.913 35.8734Z" fill="#272E64"/>
<path d="M146.072 34.7634H148.154L148.48 44.1894V49.5568H146.072V34.7634ZM146.912 34.7634H149.158L152.57 45.7681L155.956 34.7634H158.039L153.486 49.5568H151.627L146.912 34.7634ZM156.959 34.7634H159.052V49.5568H156.633V44.1894L156.959 34.7634Z" fill="#272E64"/>
<path d="M161.863 35.69C161.849 35.3378 161.973 34.994 162.21 34.7326C162.335 34.6039 162.487 34.5036 162.655 34.4386C162.823 34.3736 163.003 34.3453 163.182 34.3557C163.36 34.3458 163.539 34.3743 163.705 34.4393C163.871 34.5044 164.021 34.6044 164.145 34.7326C164.374 34.9975 164.495 35.3397 164.481 35.69C164.492 36.0306 164.372 36.3626 164.145 36.6168C164.021 36.7443 163.87 36.8436 163.704 36.9077C163.538 36.9719 163.36 36.9994 163.182 36.9885C163.003 36.9996 162.824 36.9721 162.656 36.908C162.488 36.8439 162.336 36.7446 162.21 36.6168C162.094 36.4929 162.003 36.3472 161.944 36.1881C161.884 36.029 161.857 35.8597 161.863 35.69ZM164.349 38.562V49.5565H161.975V38.562H164.349Z" fill="#272E64"/>
<path d="M169.584 33.9518V49.5548H167.206V33.9518H169.584Z" fill="#272E64"/>
<path d="M176.519 49.7586C175.872 49.7694 175.228 49.6607 174.62 49.4378C174.082 49.2354 173.598 48.9092 173.209 48.4856C172.803 48.0355 172.501 47.5018 172.323 46.9222C172.112 46.2205 172.011 45.4905 172.023 44.7579V43.7038C172.008 42.8931 172.115 42.0847 172.338 41.3053C172.518 40.6948 172.821 40.1279 173.23 39.6401C173.596 39.2165 174.056 38.885 174.574 38.6725C175.697 38.2345 176.944 38.2345 178.068 38.6725C178.566 38.8987 178.997 39.2495 179.32 39.691C179.67 40.1863 179.919 40.7451 180.054 41.3359C180.221 42.0811 180.299 42.8434 180.288 43.6071V44.819H173.148V43.0214H177.945V42.7821C177.939 42.3449 177.878 41.9103 177.762 41.4886C177.679 41.1657 177.502 40.8748 177.253 40.6535C176.959 40.4384 176.598 40.3354 176.234 40.3632C175.955 40.3598 175.678 40.419 175.425 40.5364C175.179 40.6615 174.975 40.8564 174.839 41.0965C174.665 41.4139 174.547 41.7582 174.488 42.115C174.398 42.6397 174.357 43.1716 174.365 43.7038V44.7579C174.357 45.2257 174.407 45.6926 174.513 46.1482C174.594 46.4864 174.745 46.8039 174.956 47.0801C175.149 47.307 175.396 47.4821 175.674 47.5893C175.986 47.707 176.318 47.764 176.652 47.7573C177.142 47.7677 177.627 47.6612 178.068 47.4467C178.454 47.2416 178.799 46.9671 179.086 46.637L180.145 48.0934C179.923 48.3893 179.667 48.6577 179.381 48.8929C179.019 49.1647 178.615 49.3762 178.185 49.5193C177.647 49.6903 177.084 49.7712 176.519 49.7586Z" fill="#272E64"/>
<path d="M190.05 34.7639V49.5573H187.585V34.7894L190.05 34.7639ZM191.211 49.5573H188.665V47.4847H191.211C191.873 47.5165 192.531 47.363 193.111 47.0416C193.599 46.7237 193.959 46.2442 194.129 45.6871C194.363 44.9341 194.469 44.1477 194.445 43.3599V40.9512C194.456 40.3201 194.397 39.6898 194.267 39.0721C194.177 38.6147 193.989 38.1822 193.717 37.8041C193.464 37.4792 193.128 37.2292 192.744 37.081C192.281 36.9125 191.79 36.833 191.298 36.8467H188.594V34.7639H191.298C192.084 34.754 192.865 34.8922 193.6 35.1713C194.271 35.4312 194.874 35.8384 195.367 36.3629C195.876 36.9243 196.259 37.5874 196.492 38.3082C196.766 39.1689 196.899 40.0684 196.884 40.9715V43.3599C196.899 44.2614 196.767 45.1592 196.492 46.0181C196.261 46.7392 195.875 47.4012 195.362 47.9583C194.864 48.4855 194.252 48.8929 193.574 49.1499C192.819 49.4305 192.017 49.5686 191.211 49.5573Z" fill="#272E64"/>
<path d="M203.622 49.7584C202.975 49.7695 202.331 49.6608 201.723 49.4376C201.183 49.2354 200.698 48.9092 200.307 48.4853C199.903 48.035 199.602 47.5013 199.426 46.9219C199.211 46.2211 199.108 45.4907 199.121 44.7577V43.7036C199.105 42.8924 199.213 42.0837 199.441 41.3051C199.619 40.6949 199.921 40.1281 200.327 39.6399C200.695 39.2156 201.157 38.8841 201.677 38.6723C202.799 38.2346 204.044 38.2346 205.165 38.6723C205.665 38.8959 206.097 39.2471 206.418 39.6908C206.771 40.1838 207.021 40.7434 207.151 41.3356C207.32 42.0806 207.401 42.843 207.391 43.6068V44.8188H200.261V43.0212H205.058V42.7818C205.052 42.3447 204.991 41.91 204.875 41.4884C204.795 41.1646 204.617 40.8731 204.366 40.6532C204.079 40.4439 203.728 40.3413 203.373 40.363C203.092 40.3595 202.813 40.4187 202.558 40.5361C202.313 40.6627 202.11 40.8572 201.972 41.0963C201.803 41.4149 201.686 41.7588 201.626 42.1147C201.537 42.6395 201.496 43.1713 201.504 43.7036V44.7577C201.493 45.2255 201.543 45.6928 201.652 46.1479C201.728 46.4865 201.878 46.8045 202.089 47.0798C202.283 47.3068 202.529 47.4818 202.808 47.5891C203.121 47.7073 203.455 47.7643 203.79 47.7571C204.279 47.7678 204.762 47.6613 205.201 47.4465C205.587 47.2413 205.933 46.9669 206.22 46.6368L207.269 48.1136C207.039 48.405 206.774 48.6667 206.479 48.8927C206.117 49.1655 205.713 49.3771 205.283 49.5191C204.746 49.6901 204.185 49.7709 203.622 49.7584Z" fill="#272E64"/>
<path d="M211.994 33.9518V49.5548H209.621V33.9518H211.994Z" fill="#272E64"/>
<path d="M214.744 35.69C214.731 35.3381 214.855 34.9951 215.09 34.7326C215.216 34.6039 215.368 34.5036 215.535 34.4386C215.703 34.3736 215.883 34.3453 216.063 34.3557C216.241 34.3458 216.419 34.3743 216.585 34.4393C216.751 34.5044 216.901 34.6044 217.025 34.7326C217.256 34.9969 217.378 35.3391 217.366 35.69C217.376 36.0313 217.254 36.3634 217.025 36.6168C216.901 36.7443 216.751 36.8436 216.585 36.9077C216.418 36.9719 216.24 36.9994 216.063 36.9885C215.883 36.9996 215.704 36.9721 215.536 36.908C215.368 36.8439 215.216 36.7446 215.09 36.6168C214.858 36.365 214.733 36.0323 214.744 35.69ZM217.234 38.562V49.5565H214.856V38.562H217.234Z" fill="#272E64"/>
<path d="M221.588 38.5627L223.686 47.6272L223.798 49.5572H222.27L219.123 38.5627H221.588ZM223.055 47.5864L225.092 38.5627H227.541L224.379 49.5572H222.851L223.055 47.5864Z" fill="#272E64"/>
<path d="M233.504 49.7586C232.857 49.769 232.213 49.6602 231.605 49.4378C231.063 49.2368 230.576 48.9105 230.184 48.4856C229.778 48.0364 229.477 47.5023 229.303 46.9222C229.088 46.2214 228.985 45.4909 228.997 44.7579V43.7038C228.982 42.8927 229.09 42.0839 229.318 41.3053C229.494 40.6944 229.796 40.1271 230.204 39.6401C230.57 39.2165 231.031 38.885 231.549 38.6725C232.672 38.2345 233.919 38.2345 235.042 38.6725C235.546 38.906 235.979 39.2699 236.295 39.7267C236.646 40.2211 236.895 40.7801 237.028 41.3715C237.197 42.1165 237.277 42.8789 237.268 43.6427V44.819H230.138V43.0214H234.935V42.7821C234.929 42.3449 234.867 41.9103 234.752 41.4886C234.671 41.1648 234.494 40.8734 234.243 40.6535C233.955 40.4442 233.604 40.3415 233.25 40.3632C232.968 40.3598 232.69 40.4189 232.435 40.5364C232.189 40.6615 231.985 40.8564 231.849 41.0965C231.676 41.4139 231.557 41.7582 231.498 42.115C231.413 42.6402 231.374 43.1718 231.381 43.7038V44.7579C231.37 45.2258 231.419 45.6931 231.528 46.1482C231.605 46.4868 231.755 46.8047 231.966 47.0801C232.159 47.307 232.406 47.4821 232.684 47.5893C232.997 47.707 233.328 47.764 233.662 47.7573C234.152 47.7677 234.637 47.6612 235.078 47.4467C235.464 47.2416 235.809 46.9671 236.096 46.637L237.155 48.0934C236.927 48.392 236.662 48.6607 236.366 48.8929C236.004 49.1658 235.6 49.3774 235.169 49.5193C234.631 49.6903 234.069 49.7712 233.504 49.7586Z" fill="#272E64"/>
<path d="M241.739 40.684V49.5549H239.376V38.5605H241.627L241.739 40.684ZM244.392 38.479V40.8266C244.242 40.787 244.089 40.7597 243.934 40.7451C243.781 40.7451 243.633 40.7451 243.481 40.7451C243.189 40.7402 242.901 40.7993 242.635 40.9182C242.395 41.0347 242.188 41.2098 242.034 41.4275C241.866 41.6641 241.738 41.9275 241.657 42.2066C241.562 42.5384 241.506 42.8802 241.489 43.2251H240.98C240.975 42.5783 241.028 41.9324 241.138 41.2951C241.232 40.7635 241.403 40.2487 241.647 39.7674C241.845 39.3692 242.131 39.0211 242.482 38.7489C242.815 38.4983 243.222 38.3657 243.638 38.372C243.778 38.3744 243.918 38.3881 244.056 38.4128C244.17 38.4265 244.282 38.4486 244.392 38.479Z" fill="#272E64"/>
<path d="M247.839 38.5627L249.769 46.7513L250.177 49.3942L248.552 49.8118L245.288 38.5627H247.839ZM248.858 48.3452L251.231 38.5627H253.711L250.095 51.2224C249.995 51.5259 249.878 51.8234 249.744 52.1136C249.597 52.4403 249.409 52.7467 249.184 53.0251C248.956 53.3158 248.67 53.5552 248.344 53.7278C247.973 53.9152 247.562 54.0079 247.147 53.9977C246.962 53.9969 246.778 53.9798 246.597 53.9468C246.424 53.9095 246.254 53.8687 246.088 53.8246V51.915H246.276H246.454C246.738 51.9242 247.021 51.8738 247.284 51.7673C247.505 51.6651 247.692 51.5027 247.824 51.2988C247.99 51.0348 248.117 50.7484 248.201 50.4483L248.858 48.3452Z" fill="#272E64"/>
</svg>
