<svg width="200" height="114" viewBox="0 0 200 114" fill="none" xmlns="http://www.w3.org/2000/svg">
<path d="M78.8061 45.6479H45.785C42.864 36.3535 47.2127 23.0303 56.5929 16.6991C69.3837 8.04435 85.2442 8.17227 100.06 23.6272C104.739 18.2906 110.771 14.314 117.519 12.116V24.9063H106.327C97.31 24.9063 88.2917 24.9063 79.2745 24.7144C77.5915 24.4448 76.0712 23.555 75.0113 22.2203C70.9179 17.3599 65.2903 17.5944 61.0271 21.8579C60.0233 22.8296 59.2293 23.9956 58.6917 25.2848C58.1541 26.5739 57.8848 27.959 57.9012 29.3556C57.9176 30.7521 58.2174 32.1309 58.7842 33.4074C59.3511 34.6839 60.1721 35.8314 61.1969 36.78C65.4613 40.8302 70.8114 37.59 75.4376 34.2858C76.8443 32.154 78.443 32.0048 80.7245 32.0262C92.6626 32.1327 104.622 32.0262 116.56 32.1327C116.91 32.1857 117.253 32.2787 117.582 32.41C117.582 33.3479 117.839 34.3923 117.839 35.4583C117.839 47.7796 117.839 60.1223 117.839 72.4436C117.669 74.0327 116.997 75.5265 115.92 76.7071C113.085 80.1177 110.718 83.2514 111.656 87.792C111.925 89.6548 112.789 91.3809 114.118 92.7136C115.446 94.0463 117.17 94.9146 119.032 95.1891C120.927 95.8104 122.972 95.8129 124.869 95.1959C126.766 94.5789 128.417 93.3745 129.585 91.757C130.308 90.7897 131.377 90.1402 132.569 89.945C149.794 89.8384 166.997 89.945 184.734 89.945C180.284 95.6401 173.881 99.4833 166.763 100.731C164.145 101.365 161.462 101.679 158.769 101.67C141.331 101.67 123.872 101.67 106.413 101.67C105.517 101.67 104.601 101.52 103.556 101.435C103.449 100.412 103.3 99.5804 103.3 98.7277C103.3 86.6621 103.3 74.5753 103.3 62.4885C103.404 61.0207 104.077 59.6518 105.176 58.6727C106.96 57.3549 108.322 55.5474 109.098 53.4698C109.874 51.3922 110.029 49.1339 109.546 46.9695C108.988 44.8047 107.764 42.8701 106.046 41.4394C104.328 40.0086 102.204 39.1542 99.9745 38.9969C97.8628 39.0385 95.8179 39.739 94.1243 41.0003C92.4307 42.2617 91.1752 44.0209 90.531 46.0316C89.7217 48.1396 89.614 50.4524 90.2254 52.6263C90.8356 54.8001 92.1321 56.7187 93.9205 58.0971C94.916 58.76 95.7007 59.695 96.1809 60.7909C96.6599 61.8869 96.8157 63.0976 96.6271 64.2791C96.6271 76.5792 96.6271 88.9005 96.6271 101.499H50.9008C50.5588 97.5128 50.5588 93.5048 50.9008 89.5187C51.1268 88.5493 51.6844 87.6896 52.4785 87.0885C54.5257 85.8455 56.0858 83.9379 56.8962 81.6838C57.7079 79.4298 57.7207 76.9658 56.9337 74.7032C56.416 72.5518 55.1734 70.6444 53.4142 69.3012C51.6562 67.958 49.4883 67.2611 47.2771 67.3274C45.2111 67.487 43.2482 68.2938 41.667 69.6334C40.0871 70.9729 38.9686 72.7768 38.4731 74.7885C37.7072 77.1115 37.7633 79.6271 38.6336 81.9133C39.5026 84.1995 41.1317 86.117 43.2481 87.3443L44.143 87.9412V101.286C33.5904 103.801 18.0496 97.9177 12.8693 86.5555C10.2341 81.6197 9.56067 75.8704 10.9837 70.4588C12.4067 65.0473 15.8219 60.3732 20.5442 57.3723C25.8006 53.9816 31.9647 52.2715 38.2167 52.4694C48.1719 52.5973 58.1272 52.4694 68.0614 52.4694H71.8772C71.8772 58.2677 72.0048 63.7035 71.7495 69.1394C71.7495 70.2693 70.1297 71.2711 69.3403 72.3584C66.9101 75.7477 64.4166 80.2883 65.8876 84.3599C66.5985 86.4041 67.9595 88.1594 69.7619 89.3576C71.5644 90.556 73.709 91.1314 75.8698 90.996C78.0295 90.8608 80.0861 90.0222 81.7247 88.6083C83.3632 87.1945 84.4946 85.2831 84.9455 83.1662C85.4667 81.2478 85.3964 79.2171 84.7464 77.3386C84.0964 75.4602 82.8959 73.8212 81.2995 72.6355C80.3345 71.9757 79.5614 71.0717 79.059 70.0156C78.5577 68.9595 78.3446 67.7891 78.4429 66.624C77.0785 59.7386 78.8061 52.8957 78.8061 45.6479Z" fill="#FDC633"/>
<path d="M78.8061 45.6479H45.785C42.864 36.3535 47.2127 23.0303 56.5929 16.6991C69.3837 8.04435 85.2442 8.17227 100.06 23.6272C104.739 18.2906 110.771 14.314 117.519 12.116V24.9063H106.327C97.31 24.9063 88.2917 24.9063 79.2745 24.7144C77.5915 24.4448 76.0712 23.555 75.0113 22.2203C70.9179 17.3599 65.2903 17.5944 61.0271 21.8579C60.0233 22.8296 59.2293 23.9956 58.6917 25.2848C58.1541 26.5739 57.8848 27.959 57.9012 29.3556C57.9176 30.7521 58.2174 32.1309 58.7842 33.4074C59.3511 34.6839 60.1721 35.8314 61.1969 36.78C65.4613 40.8302 70.8114 37.59 75.4376 34.2858C76.8443 32.154 78.443 32.0048 80.7245 32.0262C92.6626 32.1327 104.622 32.0262 116.56 32.1327C116.91 32.1857 117.253 32.2787 117.582 32.41C117.582 33.3479 117.839 34.3923 117.839 35.4583C117.839 47.7796 117.839 60.1223 117.839 72.4436C117.669 74.0327 116.997 75.5265 115.92 76.7071C113.085 80.1177 110.718 83.2514 111.656 87.792C111.925 89.6548 112.789 91.3809 114.118 92.7136C115.446 94.0463 117.17 94.9146 119.032 95.1891C120.927 95.8104 122.972 95.8129 124.869 95.1959C126.766 94.5789 128.417 93.3745 129.585 91.757C130.308 90.7897 131.377 90.1402 132.569 89.945C149.794 89.8384 166.997 89.945 184.734 89.945C180.284 95.6401 173.881 99.4833 166.763 100.731C164.145 101.365 161.462 101.679 158.769 101.67C141.331 101.67 123.872 101.67 106.413 101.67C105.517 101.67 104.601 101.52 103.556 101.435C103.449 100.412 103.3 99.5804 103.3 98.7277C103.3 86.6621 103.3 74.5753 103.3 62.4885C103.404 61.0207 104.077 59.6518 105.176 58.6727C106.96 57.3549 108.322 55.5474 109.098 53.4698C109.874 51.3922 110.029 49.1339 109.546 46.9695C108.988 44.8047 107.764 42.8701 106.046 41.4394C104.328 40.0086 102.204 39.1542 99.9745 38.9969C97.8628 39.0385 95.8179 39.739 94.1243 41.0003C92.4307 42.2617 91.1752 44.0209 90.531 46.0316C89.7217 48.1396 89.614 50.4524 90.2254 52.6263C90.8356 54.8001 92.1321 56.7187 93.9205 58.0971C94.916 58.76 95.7007 59.695 96.1809 60.7909C96.6599 61.8869 96.8157 63.0976 96.6271 64.2791C96.6271 76.5792 96.6271 88.9005 96.6271 101.499H50.9008C50.5588 97.5128 50.5588 93.5048 50.9008 89.5187C51.1268 88.5493 51.6844 87.6896 52.4785 87.0885C54.5257 85.8455 56.0858 83.9379 56.8962 81.6838C57.7079 79.4298 57.7207 76.9658 56.9337 74.7032C56.416 72.5518 55.1734 70.6444 53.4142 69.3012C51.6562 67.958 49.4883 67.2611 47.2771 67.3274C45.2111 67.487 43.2482 68.2938 41.667 69.6334C40.0871 70.9729 38.9686 72.7768 38.4731 74.7885C37.7072 77.1115 37.7633 79.6271 38.6336 81.9133C39.5026 84.1995 41.1317 86.117 43.2481 87.3443L44.143 87.9412V101.286C33.5904 103.801 18.0496 97.9177 12.8693 86.5555C10.2341 81.6197 9.56067 75.8704 10.9837 70.4588C12.4067 65.0473 15.8219 60.3732 20.5442 57.3723C25.8006 53.9816 31.9647 52.2715 38.2167 52.4694C48.1719 52.5973 58.1272 52.4694 68.0614 52.4694H71.8772C71.8772 58.2677 72.0048 63.7035 71.7495 69.1394C71.7495 70.2693 70.1297 71.2711 69.3403 72.3584C66.9101 75.7477 64.4166 80.2883 65.8876 84.3599C66.5985 86.4041 67.9595 88.1594 69.7619 89.3576C71.5644 90.556 73.709 91.1314 75.8698 90.996C78.0295 90.8608 80.0861 90.0222 81.7247 88.6083C83.3632 87.1945 84.4946 85.2831 84.9455 83.1662C85.4667 81.2478 85.3964 79.2171 84.7464 77.3386C84.0964 75.4602 82.8959 73.8212 81.2995 72.6355C80.3345 71.9757 79.5614 71.0717 79.059 70.0156C78.5577 68.9595 78.3446 67.7891 78.4429 66.624C77.0785 59.7386 78.8061 52.8957 78.8061 45.6479Z" fill="#FDC633"/>
<path d="M124.869 62.6265C128.622 62.051 129.41 61.1556 133.716 65.5896C137.404 69.4053 142.435 69.4693 146.72 65.3551C147.627 64.586 148.363 63.6357 148.881 62.5654C149.399 61.495 149.687 60.328 149.728 59.1396C149.768 57.9511 149.559 56.7675 149.114 55.6646C148.67 54.5617 147.999 53.5639 147.147 52.7353C143.224 48.2374 137.682 47.4913 134.122 52.2024C131.543 55.5919 128.749 55.7624 124.998 55.1869V11.2095C135.039 10.378 143.331 15.2171 149.449 23.5735C155.568 31.9298 157.507 42.2259 153.201 50.8168C159.257 51.5789 165.264 52.6893 171.193 54.1423C178.483 56.274 185.732 60.4308 187.927 68.574C189.172 72.3353 189.529 76.3334 188.972 80.2559C188.741 80.8172 188.385 81.3184 187.93 81.7211C187.476 82.1238 186.935 82.4173 186.35 82.5794C168.465 82.5794 150.557 82.5794 132.651 82.5794C131.777 82.5794 130.839 81.5775 130.028 80.8954C129.541 80.5066 129.028 80.1506 128.494 79.8294C122.802 76.4827 124.785 70.3007 124.741 65.0779C124.72 64.2253 124.806 63.5006 124.869 62.6265Z" fill="#FDC633"/>
<path d="M124.869 62.6265C128.622 62.051 129.41 61.1556 133.716 65.5896C137.404 69.4053 142.435 69.4693 146.72 65.3551C147.627 64.586 148.363 63.6357 148.881 62.5654C149.399 61.495 149.687 60.328 149.728 59.1396C149.768 57.9511 149.559 56.7675 149.114 55.6646C148.67 54.5617 147.999 53.5639 147.147 52.7353C143.224 48.2374 137.682 47.4913 134.122 52.2024C131.543 55.5919 128.749 55.7624 124.998 55.1869V11.2095C135.039 10.378 143.331 15.2171 149.449 23.5735C155.568 31.9298 157.507 42.2259 153.201 50.8168C159.257 51.5789 165.264 52.6893 171.193 54.1423C178.483 56.274 185.732 60.4308 187.927 68.574C189.172 72.3353 189.529 76.3334 188.972 80.2559C188.741 80.8172 188.385 81.3184 187.93 81.7211C187.476 82.1238 186.935 82.4173 186.35 82.5794C168.465 82.5794 150.557 82.5794 132.651 82.5794C131.777 82.5794 130.839 81.5775 130.028 80.8954C129.541 80.5066 129.028 80.1506 128.494 79.8294C122.802 76.4827 124.785 70.3007 124.741 65.0779C124.72 64.2253 124.806 63.5006 124.869 62.6265Z" fill="#FDC633"/>
<path d="M199.886 71.8869C201.72 95.144 181.127 113.711 160.129 112.816C119.86 113.178 79.5688 113.072 39.2781 112.816C13.9097 113.732 -11.0746 84.1869 5.17011 59.331C14.4215 41.8083 35.1214 44.9633 34.7595 36.5004C36.9122 5.20671 74.3031 -9.69401 97.924 6.93341C98.5143 7.26714 99.1772 7.4548 99.8565 7.48075C100.535 7.5067 101.209 7.37021 101.824 7.08262C126.617 -10.9944 166.056 7.44502 165.65 40.7425C182.556 44.6862 195.345 53.1918 199.886 71.8869ZM78.8227 45.6454C80.0373 53.5754 75.924 67.4529 81.424 72.6756C83.0192 73.8614 84.2197 75.5004 84.8709 77.3787C85.5209 79.2572 85.59 81.288 85.0688 83.2063C84.6823 85.3734 83.579 87.348 81.9358 88.8133C80.2926 90.2787 78.2056 91.1499 76.0084 91.2876C73.8112 91.4252 71.6315 90.8212 69.8185 89.5723C68.0055 88.3233 66.6645 86.502 66.0109 84.4C63.3675 77.7491 68.9308 73.912 71.8728 69.1796C72.1293 63.7438 72.0016 58.3078 72.0016 52.5095C60.6597 52.5095 49.6175 52.6161 38.3188 52.5095C-3.71939 55.4087 5.91614 105.632 44.2451 101.326V87.9387C34.332 83.3982 36.6346 67.8153 47.3793 67.325C57.4622 66.7921 61.8543 81.5862 52.5806 87.0861C49.1911 90.6033 51.5781 96.7853 50.9175 101.497H96.6228C96.6228 88.898 96.6228 76.5767 96.6228 64.2767C96.8113 63.0951 96.6568 61.8845 96.1766 60.7886C95.6964 59.6925 94.9117 58.7576 93.9161 58.0947C85.9859 52.7014 91.1017 38.5042 100.035 39.1011C109.627 39.3995 113.613 52.8932 105.236 58.7768C104.137 59.7559 103.464 61.1249 103.36 62.5926C103.36 75.596 102.891 88.5569 103.552 101.539C121.949 102.2 140.367 101.539 158.765 101.731C163.678 101.823 168.548 100.802 173.011 98.7459C177.474 96.6897 181.415 93.6512 184.537 89.8573C166.802 89.8573 149.598 89.8573 132.373 89.8573C131.182 90.0525 130.111 90.7019 129.389 91.6692C128.281 93.3107 126.705 94.581 124.865 95.315C123.027 96.0491 121.009 96.2129 119.076 95.7853C117.142 95.3577 115.382 94.3583 114.023 92.9172C112.666 91.476 111.772 89.6597 111.461 87.7042C109.328 80.8401 116.556 78.1968 117.685 72.4625C117.685 59.1605 118.154 45.7094 117.494 32.4288C105.299 31.5974 92.9135 32.4288 80.6346 32.045C73.5359 32.045 72.3424 45.1765 61.1082 36.7988C50.449 26.9502 65.861 10.6639 75.0924 22.0047C76.1524 23.3394 77.6726 24.2292 79.3557 24.4988C92.1464 24.8185 104.81 24.648 117.6 24.6906V11.9003C110.851 14.0983 104.82 18.0749 100.141 23.4115C76.9898 -0.804735 40.6215 14.9486 45.8017 45.6454H78.8227ZM124.869 62.6992C124.273 72.3559 123.633 76.9817 132.65 82.5242C150.557 82.6521 168.464 82.7161 186.349 82.5242C191.232 81.3517 188.332 72.0788 187.565 68.6254C181.894 53.8312 166.246 52.7227 153.2 50.7615C160.896 31.3416 144.183 10.472 124.996 11.1969V55.1743C128.749 55.7498 131.392 55.3022 134.036 51.9127C142.563 41.2541 157.486 57.9028 147.744 67.0052C135.336 76.9604 134.931 60.2264 124.869 62.6139V62.6992Z" fill="#363F4F"/>
</svg>
